<svg width="1440" height="1922" fill="none" xmlns="http://www.w3.org/2000/svg"><path d="M2114.95 546.342c-14.16-100.745-100.66-178.136-205.25-178.136-17.06 0-33.78 2.045-49.65 5.966-52.89 12.955-109.19-1.364-148.27-39.207-52.89-51.14-125.06-82.676-204.74-82.676-30.71 0-60.39 4.773-88.2 13.467-53.41 16.706-112.1 3.409-153.22-34.605-41.8-38.695-97.76-62.39-159.35-62.39-23.89 0-46.92 3.58-68.59 10.228-55.453 16.876-115.852 1.364-156.288-39.889C797.278 53.185 680.234 0 550.736 0 380.631 0 231.853 91.881 151.663 228.594c-28.664 48.754-80.873 78.756-137.347 78.244H12.44c-27.64 0-53.914 5.455-77.971 15.172-48.968 19.944-104.418 13.466-147.755-16.706-44.531-31.025-97.934-50.117-155.602-52.674C-537.8 245.3-676 380.65-676 549.581v826.079h2.047c14.162 100.74 100.664 178.13 205.253 178.13 17.061 0 33.782-2.04 49.649-5.96 52.891-12.96 109.195 1.36 148.266 39.21 52.892 51.13 125.063 82.67 204.74 82.67a295.3 295.3 0 0088.21-13.47c53.403-16.7 112.095-3.41 153.214 34.61 41.801 38.69 97.763 62.39 159.356 62.39 23.886 0 46.92-3.58 68.588-10.23 55.451-16.87 115.849-1.36 156.285 39.89 84.114 85.91 201.158 139.1 330.656 139.1 170.106 0 318.886-91.88 399.076-228.59 28.66-48.76 80.87-78.76 137.34-78.25h1.88c27.64 0 53.92-5.45 77.97-15.17 48.97-19.94 104.42-13.47 147.76 16.71 44.53 31.02 97.93 50.11 155.6 52.67 168.91 7.33 307.11-128.02 307.11-296.95V546.342h-2.05z" fill="#F8F3FF" fill-opacity=".5"/></svg>