<svg width="70" height="70" fill="none" xmlns="http://www.w3.org/2000/svg"><path d="M32.945 15.777c.444.508 1.2.557 1.692.1.492-.459.54-1.24.096-1.747-.108-.136-1.164-1.313-2.988-2.056-1.716-.694-4.452-1.127-7.715.842-4.668 2.8-8.7.285-9.048.05-.24-.186-1.26-.892-2.675-1.14-1.488-.248-3.684-.037-5.724 2.403-2.724 3.27-3.624 4.422-3.828 4.682-.336.371-1.836 2.13-1.752 4.384.036 1.04.396 2.007 1.068 2.899.06.124.144.248.252.359l.252.235c.168.174.348.347.54.508l5.724 5.462L10.543 31 4.23 24.992c-.528-.57-.804-1.164-.828-1.783-.06-1.387 1.092-2.589 1.092-2.601l.06-.062.048-.062c.012-.013.768-1.003 3.78-4.633 2.4-2.886 4.895-1.102 5.171-.891l.06.05c.144.098 2.52 1.696 5.868 1.696 1.716 0 3.684-.409 5.736-1.647 1.92-1.152 3.791-1.4 5.543-.719 1.356.52 2.16 1.412 2.184 1.437zm8.051 8.955c.684 0 1.236-.57 1.236-1.276 0-.706-.552-1.275-1.236-1.275-.684 0-1.236.57-1.236 1.275 0 .707.552 1.276 1.236 1.276zm20.279 16.56a4.885 4.885 0 00-1.524-3.406l-5.724-5.462c-2.952-2.812-6.815-5.822-9.54-7.865a1.184 1.184 0 00-1.679.285 1.274 1.274 0 00.276 1.734c2.676 1.994 6.455 4.942 9.323 7.667l5.712 5.462a2.48 2.48 0 01.132 3.43 2.311 2.311 0 01-3.324.137l-9.287-8.856a1.17 1.17 0 00-1.692.074 1.25 1.25 0 00.072 1.747l.36.347c.036.05.084.099.132.148l9.431 9.017a2.48 2.48 0 01.132 3.431 2.311 2.311 0 01-3.324.136l-.863-.83a9.863 9.863 0 00-.349-.371l-7.283-6.936-.936-.892a1.17 1.17 0 00-1.692.062c-.204.223-.3.495-.312.78v.112c.012.322.144.631.384.867l.948.904 7.488 7.159c.732.929.72 2.304-.096 3.208l-.024.025a2.317 2.317 0 01-1.644.78 2.358 2.358 0 01-1.704-.644l-4.068-3.84c-.06-.074-.132-.136-.204-.21l-3.995-3.815a1.16 1.16 0 00-1.692.074 1.268 1.268 0 00-.156 1.474c.06.124.144.236.252.335l4.091 3.889c.828.929.84 2.366 0 3.307l-.012.012a2.295 2.295 0 01-1.644.78 2.262 2.262 0 01-1.691-.644l-4.812-4.595a3.56 3.56 0 01-.864 1.499l-.528.545 4.572 4.372a4.664 4.664 0 003.227 1.3h.193a4.655 4.655 0 003.311-1.572l.012-.013a4.868 4.868 0 001.14-2.23l1.224 1.165a4.63 4.63 0 003.24 1.3 4.706 4.706 0 003.503-1.572l.024-.025a4.95 4.95 0 001.236-2.824c.42.124.852.186 1.296.186h.192a4.608 4.608 0 003.3-1.573c1.116-1.251 1.488-2.948 1.128-4.496a4.709 4.709 0 003.06-1.561c.876-.954 1.32-2.205 1.272-3.518z" fill="#373744"/><path d="M27.653 44.463c.312-1.548-.108-3.208-1.26-4.409a4.571 4.571 0 00-2.652-1.362 5.19 5.19 0 00.204-1.437 4.877 4.877 0 00-1.367-3.406 4.547 4.547 0 00-3.3-1.412 4.73 4.73 0 00-1.38.21 4.761 4.761 0 00-1.332-2.799 4.576 4.576 0 00-6.611 0l-4.548 4.694c-1.824 1.883-1.824 4.942 0 6.825.6.62 1.332 1.04 2.1 1.25a4.91 4.91 0 00-1.02 3.01c0 1.289.492 2.503 1.368 3.407a4.589 4.589 0 003.3 1.412c1.02 0 2.027-.335 2.867-1.016.204.78.6 1.524 1.2 2.13a4.589 4.589 0 003.3 1.413 4.5 4.5 0 002.328-.645c.18.905.624 1.735 1.272 2.403a4.589 4.589 0 003.3 1.412c1.2 0 2.387-.47 3.3-1.412l1.99-2.056a4.846 4.846 0 001.369-3.406 4.877 4.877 0 00-1.368-3.406 4.501 4.501 0 00-3.06-1.4zM7.1 39.608a2.401 2.401 0 010-3.32l4.547-4.694a2.214 2.214 0 011.608-.68c.588 0 1.164.222 1.608.68a2.401 2.401 0 010 3.32l-4.547 4.694a2.224 2.224 0 01-3.216 0zm5.663 7.68a2.224 2.224 0 01-3.215 0 2.401 2.401 0 010-3.32l8.111-8.373a2.224 2.224 0 013.216 0 2.35 2.35 0 01.66 1.66c0 .631-.24 1.214-.66 1.66l-8.112 8.372zm7.38 2.526a2.224 2.224 0 01-3.216 0 2.401 2.401 0 010-3.32l4.548-4.694a2.215 2.215 0 011.607-.68c.588 0 1.164.222 1.608.68a2.401 2.401 0 010 3.32l-4.547 4.694zm8.891 1.115l-1.992 2.068a2.224 2.224 0 01-3.215 0 2.35 2.35 0 01-.66-1.66c0-.631.24-1.213.66-1.66l1.991-2.055a2.215 2.215 0 011.608-.681c.588 0 1.164.223 1.608.68a2.35 2.35 0 01.66 1.66 2.3 2.3 0 01-.66 1.648zm39.573-29.652c-.276-1.338-.96-2.292-1.116-2.49l-3.732-5.165c-1.74-2.477-3.815-2.762-5.243-2.576-1.38.186-2.4.855-2.604 1.003l-3.084 2.02c-3.587 2.39-6.203.891-9.827-1.165-4.296-2.453-7.26-.57-7.392-.495l-6.61 4.681-.085.087c-1.968 2.031-1.968 5.338 0 7.37a4.94 4.94 0 007.091.05l1.572-1.338c.516-.434.576-1.214.156-1.747a1.174 1.174 0 00-1.691-.16l-1.608 1.374-.084.074a2.592 2.592 0 01-3.744 0 2.753 2.753 0 01-.78-1.932c0-.694.252-1.35.708-1.858l6.347-4.496c.204-.124 2.064-1.077 4.944.57 1.92 1.102 3.744 2.13 5.7 2.539 2.267.47 4.415-.012 6.575-1.45l3.096-2.03.048-.025c.012 0 .72-.508 1.644-.607 1.128-.124 2.087.396 2.928 1.585l3.767 5.19.024.037c0 .012.504.669.66 1.536.192 1.053-.18 1.982-1.164 2.824l-.024.025-9.467 9.227 1.764 1.685 9.3-9.054c1.655-1.437 2.339-3.32 1.93-5.29z" fill="#373744"/></svg>