<svg width="158" height="158" fill="none" xmlns="http://www.w3.org/2000/svg"><path d="M78.9 157.799c43.575 0 78.899-35.324 78.899-78.9C157.799 35.326 122.475 0 78.899 0 35.326 0 0 35.325 0 78.9s35.325 78.899 78.9 78.899z" fill="#6D07E6"/><path d="M101.556 55.9c0-4.419 3.615-7.9 7.899-7.9H55.9c-4.419 0-7.9 3.615-7.9 7.9 0 4.418 3.615 7.899 7.9 7.899h53.555c-4.284.134-7.899-3.481-7.899-7.9z" stroke="#fff" stroke-width="3.5" stroke-miterlimit="10" stroke-linecap="round" stroke-linejoin="round"/><path d="M109.455 109.455H55.9c-4.419 0-7.9-3.615-7.9-7.899V55.9c0 4.418 3.615 7.899 7.9 7.899h53.555v45.656z" stroke="#fff" stroke-width="3.5" stroke-miterlimit="10" stroke-linecap="round" stroke-linejoin="round"/><path d="M77.453 79.196h32v14.862h-32l-7.766-7.364 7.766-7.498z" stroke="#fff" stroke-width="3.5" stroke-miterlimit="10" stroke-linecap="round" stroke-linejoin="round"/><circle cx="20" cy="20" r="20" fill="#FFD371"/><path d="M16.98 25.337h2.814v-8.093c0-.313.01-.643.028-.988l-1.996 1.67a.7.7 0 01-.26.144.845.845 0 01-.604-.038.707.707 0 01-.23-.192l-.75-1.028 4.234-3.6h1.949v12.125h2.496v1.776h-7.68v-1.776z" fill="#373744"/></svg>