<svg width="158" height="158" fill="none" xmlns="http://www.w3.org/2000/svg"><path d="M78.9 157.799c43.575 0 78.899-35.324 78.899-78.9C157.799 35.326 122.475 0 78.899 0 35.326 0 0 35.325 0 78.9s35.325 78.899 78.9 78.899z" fill="#6D07E6"/><path d="M111.096 77.573c-.804-12.05-11.649-21.02-23.967-21.288l-10.31-.134L72 49.724c-1.74-2.276-5.087-2.276-6.962-.134 0 0-12.451 10.042-16.066 23.297l-4.553-.134A4.41 4.41 0 0040 76.903v4.017c0 2.277 1.874 4.285 4.285 4.285l5.087.134c3.08 12.184 14.996 22.36 14.996 22.36 1.74 2.276 5.088 2.276 6.962.133l4.954-6.292 6.293.133 4.82 6.427c1.74 2.276 5.088 2.276 6.962.134l13.389-16.87h-.134c2.41-4.017 3.883-8.703 3.482-13.79zM89.138 64.854l-12.318-.268" stroke="#fff" stroke-width="3.5" stroke-miterlimit="10" stroke-linecap="round" stroke-linejoin="round"/><path d="M65.108 71.381c.016-1.035-.87-1.888-1.98-1.905-1.109-.017-2.02.808-2.037 1.843-.016 1.035.87 1.888 1.98 1.905 1.109.017 2.02-.808 2.037-1.843zm45.453-14.561c3.749 0 6.694 3.08 6.56 6.695-.134 3.615-3.079 6.56-6.828 6.427" stroke="#fff" stroke-width="3.5" stroke-miterlimit="10" stroke-linecap="round" stroke-linejoin="round"/><circle cx="20" cy="20" r="20" fill="#FFD371"/><path d="M20.66 13.078c.64 0 1.216.093 1.728.279.519.179.96.432 1.325.758.365.32.643.697.835 1.133.199.435.298.905.298 1.41 0 .442-.051.833-.154 1.172a2.597 2.597 0 01-1.123 1.507 4.086 4.086 0 01-.922.432c.832.263 1.453.663 1.863 1.2.41.538.614 1.213.614 2.026 0 .691-.128 1.302-.384 1.833a3.99 3.99 0 01-1.037 1.345c-.435.358-.94.63-1.516.816a5.82 5.82 0 01-1.815.278c-.697 0-1.305-.08-1.824-.24a3.96 3.96 0 01-1.353-.71 4.29 4.29 0 01-.98-1.152 7.788 7.788 0 01-.69-1.575l1.046-.432a1.37 1.37 0 01.547-.115c.166 0 .313.035.441.105a.71.71 0 01.308.308c.115.224.24.445.374.662.14.218.307.413.5.586.191.166.415.304.671.412.263.103.573.154.931.154.404 0 .756-.064 1.056-.192.301-.134.55-.307.75-.518.204-.211.354-.445.45-.701.103-.263.154-.525.154-.787 0-.333-.035-.634-.106-.903a1.345 1.345 0 00-.441-.7c-.224-.193-.547-.343-.97-.452-.416-.108-.976-.163-1.68-.163v-1.69c.583-.006 1.066-.06 1.45-.163.384-.102.688-.243.912-.422.23-.186.39-.407.48-.663.09-.256.134-.537.134-.844 0-.66-.179-1.155-.537-1.488-.359-.34-.848-.51-1.47-.51-.562 0-1.03.151-1.4.452a2.298 2.298 0 00-.778 1.143c-.077.243-.183.419-.317.527-.135.103-.31.154-.528.154a1.99 1.99 0 01-.327-.029l-1.248-.22c.096-.666.282-1.248.557-1.748a4.156 4.156 0 011.027-1.257c.416-.34.89-.592 1.421-.759a5.615 5.615 0 011.728-.259z" fill="#373744"/></svg>