<svg width="70" height="70" fill="none" xmlns="http://www.w3.org/2000/svg"><path d="M48.82 41.968l-1.218 2.123 12.876 7.393 1.219-2.123-12.877-7.393zm-28.231-.061l-12.976 7.45 1.219 2.123 12.976-7.45-1.22-2.123z" fill="#373744"/><path d="M34.657 67L7 51.123V19.878L34.657 4l27.658 15.877v31.247L34.657 67zM9.447 49.704l25.21 14.473 25.21-14.473V21.296L34.657 6.823 9.447 21.296v28.408z" fill="#373744"/><path d="M35.881 5.9h-2.447v14.523h2.447V5.901z" fill="#373744"/><path d="M34.66 51.833c-8.998 0-16.316-7.318-16.316-16.317S25.662 19.2 34.66 19.2s16.317 7.318 16.317 16.317c0 9-7.318 16.317-16.317 16.317zm0-30.186c-7.644 0-13.869 6.225-13.869 13.87 0 7.644 6.225 13.869 13.87 13.869 7.644 0 13.87-6.225 13.87-13.87 0-7.644-6.226-13.87-13.87-13.87z" fill="#373744"/><path d="M34.659 37.172L7.613 21.647l1.224-2.122L34.66 34.35l25.82-14.825 1.216 2.122-27.037 15.525z" fill="#373744"/><path d="M35.881 35.63h-2.447v29.96h2.447V35.63z" fill="#373744"/></svg>