<svg width="68" height="32" fill="none" xmlns="http://www.w3.org/2000/svg"><g clip-path="url(#clip0)" fill="#373744"><path d="M5.865 11.177h.043c.973-1.785 2.666-2.55 4.655-2.55h.974v4.93c-.72-.383-1.397-.468-2.159-.468-2.835 0-3.555 1.87-3.555 4.377v5.822H.744V8.797h5.121v2.38zm13.459-2.38h-5.12v14.491h5.12V8.797zm8.973 1.657h.042C29.27 9.01 31.006 8.33 32.7 8.33c4.317 0 7.28 3.613 7.28 7.777 0 4.165-2.963 7.692-7.238 7.692-1.65 0-3.386-.595-4.486-1.87v7.947L23.175 32V8.797h5.122v1.657zm-.17 5.61c0 1.827 1.228 3.23 3.302 3.23s3.301-1.403 3.301-3.23c0-1.785-1.227-3.273-3.3-3.273-2.117 0-3.302 1.488-3.302 3.273zm19.682-7.267h-5.121v14.491h5.12V8.797zm19.935 7.267c0 4.93-4.063 7.692-8.677 7.692-4.613 0-8.676-2.763-8.676-7.692 0-4.93 4.063-7.735 8.676-7.735 4.656 0 8.677 2.805 8.677 7.735zm-11.936 0c0 1.827 1.228 3.23 3.301 3.23 2.074 0 3.302-1.403 3.302-3.23 0-1.785-1.228-3.273-3.302-3.273-2.116 0-3.3 1.488-3.3 3.273zM19.324 4.802L14.33 6.8V2.04L19.324 0v4.802zm28.443 0L42.772 6.8V2.04L47.767 0v4.802z"/></g><defs><clipPath id="clip0"><path fill="#fff" transform="translate(.744)" d="M0 0h67v32H0z"/></clipPath></defs></svg>