<svg width="158" height="158" fill="none" xmlns="http://www.w3.org/2000/svg"><path d="M78.9 157.799c43.575 0 78.899-35.324 78.899-78.9C157.799 35.326 122.475 0 78.899 0 35.326 0 0 35.325 0 78.9s35.325 78.899 78.9 78.899z" fill="#6D07E6"/><path d="M60.557 54.1C66.888 47.769 75.481 44 84.977 44c9.498 0 18.241 3.92 24.422 10.1 6.331 6.331 10.1 14.924 10.1 24.42 0 9.498-3.92 18.241-10.1 24.422-6.181 6.18-14.924 10.1-24.421 10.1s-18.24-3.92-24.421-10.1a34.655 34.655 0 01-10.1-24.421" stroke="#fff" stroke-width="3.5" stroke-miterlimit="10" stroke-linecap="round" stroke-linejoin="round"/><path d="M84.978 44H73.52C54.376 44 39 59.527 39 78.52c0 19.146 15.527 34.522 34.52 34.522h11.458" stroke="#fff" stroke-width="3.5" stroke-miterlimit="10" stroke-linecap="round" stroke-linejoin="round"/><path d="M90.858 78.069H77.44V64.802h13.417c3.618 0 6.633 3.015 6.633 6.633s-3.015 6.632-6.633 6.632z" stroke="#fff" stroke-width="3.5" stroke-miterlimit="10" stroke-linecap="round" stroke-linejoin="round"/><path d="M93.722 91.334h-16.28V78.068h16.13c3.617 0 6.632 3.016 6.632 6.633.151 3.618-2.864 6.633-6.482 6.633zM77.441 59.527V96.61m-5.277-31.807h5.276m-5.276 26.531h5.276m10.708 5.276v-5.276m0-26.833v-5.276" stroke="#fff" stroke-width="3.5" stroke-miterlimit="10" stroke-linecap="round" stroke-linejoin="round"/><circle cx="20" cy="20" r="20" fill="#FFD371"/><path d="M20.181 13.079c.64 0 1.226.096 1.757.288.532.185.986.45 1.364.796.377.346.672.762.883 1.248.21.487.317 1.028.317 1.623 0 .512-.077.986-.23 1.42a5.613 5.613 0 01-.606 1.249c-.25.396-.544.78-.883 1.152-.34.37-.694.748-1.066 1.133l-3.13 3.196a6.82 6.82 0 01.903-.201c.295-.052.576-.077.845-.077h3.562c.256 0 .457.074.605.22.153.141.23.33.23.567v1.42h-9.523v-.786c0-.16.032-.327.096-.5.07-.172.179-.332.326-.48l4.215-4.224c.352-.358.665-.7.94-1.027a6.43 6.43 0 00.701-.97c.192-.32.336-.643.432-.969.102-.333.154-.681.154-1.046a2.43 2.43 0 00-.144-.874 1.714 1.714 0 00-.413-.643c-.18-.173-.394-.3-.643-.384a2.377 2.377 0 00-.826-.135c-.57 0-1.04.145-1.411.433-.365.288-.62.675-.768 1.161-.07.243-.176.42-.317.528a.89.89 0 01-.537.154c-.096 0-.202-.01-.317-.03l-1.248-.22c.096-.665.281-1.248.557-1.747a4.156 4.156 0 011.027-1.258c.416-.339.89-.592 1.42-.758a5.615 5.615 0 011.729-.26z" fill="#373744"/></svg>