<svg width="70" height="70" fill="none" xmlns="http://www.w3.org/2000/svg"><path d="M34.865 65.198a3.712 3.712 0 01-1.275-.216c-5.89-2.027-10.76-4.869-14.476-8.454-3.254-3.13-5.731-6.943-7.37-11.332-2.988-8.023-2.818-16.92-2.685-24.067v-.108a72 72 0 00.061-1.919c.049-3.07 2.514-5.612 5.635-5.78 7.298-.407 12.957-2.758 17.79-7.41l.037-.037A3.387 3.387 0 0134.865 5c.85 0 1.664.312 2.295.887l.037.036c4.833 4.653 10.48 7.004 17.79 7.411 3.11.168 5.586 2.71 5.635 5.78.012.708.024 1.343.06 1.93v.037c.134 7.159.304 16.069-2.695 24.115-1.64 4.389-4.117 8.202-7.372 11.332-3.703 3.573-8.573 6.415-14.463 8.454a3.72 3.72 0 01-1.287.216zm0-57.788a1.01 1.01 0 00-.62.228l-.011.012-.013.012c-2.635 2.542-5.476 4.413-8.67 5.756-3.206 1.343-6.691 2.099-10.662 2.315-1.846.095-3.304 1.594-3.34 3.417a48.404 48.404 0 01-.06 1.979v.048c-.147 7.315-.304 15.589 2.537 23.191 3.267 8.754 9.922 14.75 20.365 18.348.061.024.134.036.195.048.097.024.194.023.279.023.097 0 .182-.011.28-.023.06-.012.133-.024.194-.048 10.431-3.598 17.086-9.606 20.353-18.348 2.853-7.626 2.683-15.912 2.55-23.227v-.012a84.117 84.117 0 01-.06-1.979c-.025-1.823-1.495-3.322-3.328-3.417-3.971-.216-7.457-.972-10.663-2.315-3.193-1.331-6.023-3.214-8.67-5.756l-.012-.012-.013-.012a.974.974 0 00-.631-.228z" fill="#373744"/><path d="M34.888 49.403C26.68 49.403 20 42.808 20 34.702 20 26.595 26.68 20 34.888 20c8.21 0 14.889 6.595 14.889 14.702 0 8.106-6.68 14.701-14.889 14.701zm0-26.993c-6.861 0-12.46 5.517-12.46 12.304s5.587 12.303 12.46 12.303c6.861 0 12.46-5.516 12.46-12.303 0-6.787-5.599-12.304-12.46-12.304z" fill="#373744"/><path d="M32.12 41.202a1.21 1.21 0 01-.862-.347l-3.243-3.202a1.198 1.198 0 01.863-2.05c.328 0 .631.12.862.347l2.38 2.35 7.626-7.53a1.21 1.21 0 01.862-.348 1.198 1.198 0 01.862 2.05l-8.488 8.383a1.21 1.21 0 01-.862.347z" fill="#373744"/></svg>