<svg width="1440" height="1922" viewBox="0 0 1440 1922" fill="none" xmlns="http://www.w3.org/2000/svg">
<path d="M2114.95 546.342C2100.79 445.597 2014.29 368.206 1909.7 368.206C1892.64 368.206 1875.92 370.251 1860.05 374.172C1807.16 387.127 1750.86 372.808 1711.78 334.965C1658.89 283.825 1586.72 252.289 1507.04 252.289C1476.33 252.289 1446.65 257.062 1418.84 265.756C1365.43 282.462 1306.74 269.165 1265.62 231.151C1223.82 192.456 1167.86 168.761 1106.27 168.761C1082.38 168.761 1059.35 172.341 1037.68 178.989C982.227 195.865 921.828 180.353 881.392 139.1C797.278 53.1853 680.234 0 550.736 0C380.631 0 231.853 91.881 151.663 228.594C122.999 277.348 70.7905 307.35 14.3163 306.838C13.6339 306.838 13.122 306.838 12.4395 306.838C-15.2004 306.838 -41.4755 312.293 -65.5325 322.01C-114.5 341.954 -169.95 335.476 -213.287 305.304C-257.818 274.279 -311.221 255.187 -368.889 252.63C-537.8 245.3 -676 380.65 -676 549.581V1187.29V1375.66H-673.953C-659.791 1476.4 -573.289 1553.79 -468.7 1553.79C-451.639 1553.79 -434.918 1551.75 -419.051 1547.83C-366.16 1534.87 -309.856 1549.19 -270.785 1587.04C-217.893 1638.17 -145.722 1669.71 -66.0443 1669.71C-35.3333 1669.71 -5.64587 1664.94 22.1647 1656.24C75.5678 1639.54 134.26 1652.83 175.379 1690.85C217.18 1729.54 273.142 1753.24 334.735 1753.24C358.621 1753.24 381.655 1749.66 403.323 1743.01C458.774 1726.14 519.172 1741.65 559.608 1782.9C643.722 1868.81 760.766 1922 890.264 1922C1060.37 1922 1209.15 1830.12 1289.34 1693.41C1318 1644.65 1370.21 1614.65 1426.68 1615.16C1427.37 1615.16 1427.88 1615.16 1428.56 1615.16C1456.2 1615.16 1482.48 1609.71 1506.53 1599.99C1555.5 1580.05 1610.95 1586.52 1654.29 1616.7C1698.82 1647.72 1752.22 1666.81 1809.89 1669.37C1978.8 1676.7 2117 1541.35 2117 1372.42V1187.29V734.707V546.342H2114.95Z" fill="#F8F3FF" fill-opacity="0.5"/>
</svg>
